<?xml version="1.0" standalone="no"?>
<!DOCTYPE svg PUBLIC "-//W3C//DTD SVG 20010904//EN"
 "http://www.w3.org/TR/2001/REC-SVG-20010904/DTD/svg10.dtd">
<svg version="1.0" xmlns="http://www.w3.org/2000/svg"
 width="105pt" height="105pt" viewBox="0 0 2000.000000 2000.000000"
 preserveAspectRatio="xMidYMid meet">
<metadata>
Created by potrace 1.15, written by Peter Selinger 2001-2017
</metadata>
<g transform="translate(0.000000,2000.000000) scale(0.100000,-0.100000)"
fill="#B68D40" stroke="none">
<path d="M9400 19990 c-1204 -72 -2366 -354 -3480 -845 -210 -93 -678 -330
-881 -447 -1356 -781 -2506 -1854 -3364 -3137 -953 -1427 -1504 -3011 -1651
-4751 -21 -251 -30 -1074 -15 -1366 122 -2309 1040 -4496 2606 -6204 244 -266
634 -644 895 -866 1566 -1333 3454 -2131 5530 -2338 297 -30 572 -38 1112 -33
569 5 696 13 1143 72 936 125 1812 364 2672 730 200 86 696 329 878 431 1074
602 1998 1362 2795 2299 816 959 1446 2074 1846 3270 293 878 454 1726 505
2660 13 243 7 1078 -10 1280 -111 1349 -431 2523 -1006 3690 -964 1956 -2587
3577 -4550 4545 -1132 557 -2342 890 -3627 996 -224 19 -1161 28 -1398 14z
m1440 -1418 c1487 -170 2752 -622 3923 -1402 467 -311 828 -604 1231 -1000
395 -388 613 -634 895 -1010 914 -1218 1469 -2601 1660 -4135 45 -363 46 -381
46 -1030 0 -686 -3 -736 -71 -1205 -244 -1682 -955 -3221 -2073 -4485 -159
-180 -548 -572 -716 -723 -742 -664 -1610 -1204 -2535 -1577 -907 -365 -1902
-577 -2847 -605 -601 -18 -902 -8 -1363 45 -2046 237 -3989 1243 -5376 2785
-1167 1298 -1892 2840 -2138 4550 -70 486 -71 507 -71 1210 0 685 2 725 56
1120 242 1771 951 3317 2128 4635 156 175 503 521 680 678 1147 1020 2459
1684 3951 2000 364 78 842 146 1195 171 28 2 318 2 645 1 531 -2 615 -5 780
-23z"/>
<path d="M9780 17539 c-270 -22 -482 -81 -735 -204 -384 -187 -647 -401 -872
-710 -212 -291 -371 -671 -419 -998 -21 -145 -15 -571 10 -717 26 -151 72
-315 120 -426 85 -197 241 -485 303 -557 94 -112 391 -397 486 -469 111 -82
506 -282 659 -333 206 -68 297 -80 613 -80 485 1 658 38 1020 216 254 125 383
215 614 433 53 49 78 71 56 47 -138 -150 -434 -385 -531 -421 -13 -5 -24 -12
-24 -15 0 -20 215 116 318 202 154 129 391 377 470 494 35 52 150 270 134 254
-5 -5 -33 -54 -61 -108 -28 -53 -66 -120 -85 -148 -44 -65 -177 -221 -184
-215 -2 3 19 31 47 62 28 31 71 82 95 113 92 120 279 492 345 688 61 181 98
512 86 763 -15 322 -48 480 -144 688 -134 290 -231 466 -303 548 -17 19 -28
37 -25 40 6 6 95 -112 141 -186 15 -25 25 -37 22 -26 -33 100 -351 450 -561
617 -139 111 -392 268 -455 283 -14 3 -7 -2 15 -13 143 -66 509 -311 491 -328
-3 -3 -29 15 -58 40 -154 132 -445 294 -638 356 -229 73 -355 95 -635 111
-187 11 -180 11 -315 -1z"/>
<path d="M8755 17197 c-416 -270 -715 -645 -908 -1139 -42 -108 -105 -334 -95
-344 3 -2 15 42 28 99 41 181 152 444 273 647 170 289 419 546 705 729 70 45
92 62 80 61 -2 0 -39 -24 -83 -53z"/>
<path d="M7345 13269 c-222 -10 -402 -50 -610 -136 -310 -128 -557 -281 -753
-468 -319 -304 -536 -671 -648 -1098 -24 -92 -53 -321 -60 -473 -22 -480 122
-982 386 -1349 202 -279 426 -498 640 -625 295 -176 548 -279 820 -337 123
-26 601 -26 740 0 437 82 681 186 1007 430 395 294 671 681 808 1133 62 203
72 278 81 564 7 224 -6 474 -31 596 -46 222 -176 536 -288 697 -10 16 -17 30
-14 33 18 19 204 -351 258 -516 12 -36 17 -43 13 -20 -18 109 -241 556 -273
547 -5 -1 -35 35 -67 80 -344 479 -882 822 -1439 918 -124 21 -385 32 -570 24z"/>
<path d="M12130 13255 c-486 -68 -1004 -348 -1332 -719 -291 -330 -468 -674
-560 -1095 -32 -145 -32 -149 -33 -421 0 -273 0 -276 32 -424 102 -466 304
-838 633 -1166 311 -310 646 -501 1080 -618 l175 -47 285 0 c311 1 408 10 621
64 200 49 429 154 644 293 104 67 279 204 329 257 17 17 35 31 40 31 14 0 -75
-82 -176 -162 -74 -58 -96 -79 -64 -61 8 4 59 45 114 91 119 98 263 247 353
363 68 87 189 270 189 284 0 5 -30 -38 -67 -96 -93 -146 -278 -377 -291 -364
-2 2 25 37 62 77 294 326 504 795 533 1190 17 218 7 591 -17 708 -81 387 -239
727 -460 988 -34 41 -60 76 -57 78 7 8 149 -173 216 -276 35 -52 65 -97 68
-100 23 -21 -90 154 -155 240 -214 283 -525 537 -867 708 -103 51 -285 125
-292 119 -2 -2 36 -19 84 -37 312 -119 634 -330 858 -562 l90 -93 -85 81
c-142 136 -249 222 -380 309 -293 192 -546 297 -845 351 -120 22 -590 27 -725
9z"/>
<path d="M4659 8977 c11 -14 11 -17 0 -17 -7 0 -38 -20 -68 -43 -82 -64 -159
-111 -267 -163 -114 -54 -357 -153 -396 -159 -44 -8 -207 -65 -278 -96 -155
-71 -353 -223 -478 -369 -121 -142 -257 -371 -333 -560 -78 -194 -123 -498
-107 -724 22 -326 192 -735 411 -989 27 -32 47 -60 45 -63 -7 -6 -103 114
-164 206 -28 41 -77 125 -109 187 -33 62 -61 110 -63 108 -6 -6 110 -217 162
-295 157 -235 375 -436 621 -571 89 -49 63 -28 -55 43 -117 70 -224 147 -217
155 3 2 29 -14 57 -36 134 -106 321 -203 543 -282 189 -67 286 -82 532 -83
228 0 292 9 500 76 392 124 610 190 875 262 228 62 476 125 530 135 25 4 126
26 225 49 195 44 570 118 650 127 28 4 129 19 225 35 241 40 383 60 460 65 36
2 166 15 290 29 203 23 554 54 605 53 11 0 76 3 145 7 637 32 1112 38 1615 18
550 -22 691 -29 875 -47 155 -15 529 -56 690 -75 143 -18 515 -78 715 -117
105 -20 197 -37 205 -37 9 -1 21 -5 28 -10 6 -4 17 -4 22 -1 6 3 15 3 22 -1 7
-4 21 -9 33 -10 23 -2 282 -63 555 -130 419 -102 749 -193 980 -268 411 -135
559 -167 765 -168 178 -1 330 23 495 79 417 140 757 391 980 722 98 146 198
406 251 652 24 114 32 178 36 304 l5 161 -40 164 c-73 294 -151 477 -283 670
-32 47 -81 111 -110 143 -28 32 -49 60 -46 63 7 8 145 -166 207 -261 55 -85
71 -106 50 -65 -78 151 -296 401 -457 523 -64 49 -261 167 -277 167 -6 0 40
-29 101 -64 131 -75 201 -127 304 -226 l74 -71 -94 81 c-122 105 -198 159
-302 214 -81 43 -260 111 -321 121 -92 17 -531 213 -525 236 2 9 -208 149
-224 149 -3 0 -24 -14 -45 -31 -92 -73 -259 -179 -377 -238 -37 -19 -70 -38
-73 -43 -7 -10 161 77 236 123 72 45 165 109 214 148 22 18 46 29 53 27 25
-10 213 -130 209 -133 -4 -5 -78 38 -158 92 l-57 37 -102 -75 c-171 -126 -356
-226 -609 -331 -131 -54 -401 -137 -451 -138 -16 -1 -32 -5 -35 -10 -3 -4 -9
-6 -13 -4 -4 3 -48 -1 -97 -9 -154 -25 -681 -68 -809 -67 -11 0 -153 -6 -315
-14 -1190 -55 -2670 -79 -3845 -64 -768 11 -1255 27 -2015 70 -150 8 -251 12
-305 12 -108 0 -624 44 -770 65 -60 8 -123 17 -139 19 -128 17 -467 140 -686
249 -143 72 -477 281 -466 292 2 2 48 -26 102 -63 182 -123 338 -211 506 -285
102 -45 259 -101 265 -95 3 2 -26 14 -64 26 -216 71 -464 200 -723 375 -63 43
-109 71 -101 62z"/>
<path d="M7690 8299 c290 -16 851 -29 1174 -27 305 1 290 2 -199 9 -291 4
-636 12 -765 18 -129 6 -262 10 -295 10 -33 -1 5 -6 85 -10z"/>
</g>
</svg>
